<svg width="1140" height="130" viewBox="0 0 1140 130" fill="none" xmlns="http://www.w3.org/2000/svg">
<path d="M199.94 123.95H186.94V109H150.93V123.95H137.93V97.56H142.22C143.607 94.7867 144.733 91.4933 145.6 87.68C146.467 83.78 147.16 79.6633 147.68 75.33C148.2 70.9967 148.547 66.5767 148.72 62.07C148.893 57.5633 148.98 53.2733 148.98 49.2V43.61H193.05V97.56H199.94V123.95ZM51.09 30.87H44.07C37.57 30.87 32.6733 32.3433 29.38 35.29C26.0867 38.2367 24.44 42.1367 24.44 46.99C24.44 49.7633 24.7433 52.19 25.35 54.27C25.9567 56.2633 26.8233 58.1267 27.95 59.86C29.1633 61.5933 30.6367 63.24 32.37 64.8C34.19 66.2733 36.3133 67.8333 38.74 69.48L46.67 74.81L23.79 109H6.76L27.3 78.45C24.3533 76.37 21.71 74.2467 19.37 72.08C17.1167 69.9133 15.21 67.6167 13.65 65.19C12.09 62.7633 10.8767 60.1633 10.01 57.39C9.23 54.53 8.84 51.3667 8.84 47.9C8.84 43.5667 9.57667 39.6233 11.05 36.07C12.61 32.43 14.8633 29.3533 17.81 26.84C20.7567 24.24 24.3967 22.2467 28.73 20.86C33.15 19.3867 38.22 18.65 43.94 18.65H66.82V109H51.09V30.87ZM219.7 81.44C219.96 87.3333 221.347 91.71 223.86 94.57C226.373 97.43 230.62 98.86 236.6 98.86C240.24 98.86 243.837 98.2533 247.39 97.04C251.03 95.74 254.02 94.31 256.36 92.75V104.58C254.107 106.14 251.247 107.483 247.78 108.61C244.313 109.737 240.153 110.3 235.3 110.3C225.593 110.3 218.097 107.527 212.81 101.98C207.61 96.4333 205.01 87.94 205.01 76.5C205.01 71.56 205.53 67.01 206.57 62.85C207.697 58.69 209.387 55.0933 211.64 52.06C213.893 48.94 216.71 46.5567 220.09 44.91C223.557 43.1767 227.587 42.31 232.18 42.31C235.907 42.31 239.287 42.8733 242.32 44C245.44 45.1267 248.083 46.9467 250.25 49.46C252.417 51.9733 254.063 55.2233 255.19 59.21C256.403 63.11 257.01 67.92 257.01 73.64V81.44H219.7ZM130.13 43.61V109H115.96V81.31H93.99V109H79.82V43.61H93.99V69.87H115.96V43.61H130.13ZM282.88 76.11V109H268.71V43.61H282.88V75.2L305.76 43.61H320.58L298.35 74.29L323.44 109H306.8L282.88 76.11ZM353.73 110.3C343.503 110.3 335.92 107.397 330.98 101.59C326.127 95.7833 323.7 87.3767 323.7 76.37C323.7 71.43 324.307 66.88 325.52 62.72C326.82 58.4733 328.683 54.8767 331.11 51.93C333.623 48.8967 336.7 46.5567 340.34 44.91C343.98 43.1767 348.227 42.31 353.08 42.31C356.807 42.31 360.013 42.6133 362.7 43.22C365.387 43.74 367.51 44.4767 369.07 45.43V57.91C367.597 56.9567 365.56 56.0467 362.96 55.18C360.36 54.3133 357.63 53.88 354.77 53.88C349.483 53.88 345.41 55.7433 342.55 59.47C339.777 63.11 338.39 68.6133 338.39 75.98C338.39 83 339.647 88.5467 342.16 92.62C344.673 96.6933 348.833 98.73 354.64 98.73C357.76 98.73 360.447 98.34 362.7 97.56C365.04 96.6933 367.163 95.61 369.07 94.31V106.27C367.25 107.57 365.083 108.567 362.57 109.26C360.143 109.953 357.197 110.3 353.73 110.3ZM178.88 55.05H161.46V57.78C161.46 60.64 161.373 63.8467 161.2 67.4C161.027 70.9533 160.723 74.55 160.29 78.19C159.857 81.83 159.25 85.34 158.47 88.72C157.777 92.1 156.867 95.0467 155.74 97.56H178.88V55.05ZM231.92 53.75C227.933 53.75 224.943 55.2233 222.95 58.17C220.957 61.03 219.873 65.2333 219.7 70.78H242.58V69.09C242.58 66.9233 242.407 64.93 242.06 63.11C241.713 61.2033 241.107 59.5567 240.24 58.17C239.46 56.7833 238.377 55.7 236.99 54.92C235.69 54.14 234 53.75 231.92 53.75Z" fill="#1E1E1E"/>
<rect x="401" y="4" width="120" height="120" rx="45" fill="#1E1E1E"/>
<path fill-rule="evenodd" clip-rule="evenodd" d="M463.25 18.7L463.25 59.6779L496.572 36.346L499.153 40.0322L465.487 63.6047L502.751 80.9811L500.849 85.0594L463.25 67.5266V109H458.75V89.7179L455.402 108.707L450.97 107.926L455.732 80.9198L444.234 105.576L440.156 103.674L454.9 72.0555L427.974 94.6489L425.082 91.2017L454.087 66.8634L416.367 70.1634L415.975 65.6805L455.393 62.232L425.082 36.7982L427.974 33.351L458.75 59.1749L458.75 18.7H463.25Z" fill="white"/>
<path d="M613.04 18.65V109H597.31V30.87H569.23V109H553.5V18.65H613.04ZM641.07 52.06C643.064 48.8533 645.534 46.4267 648.48 44.78C651.514 43.1333 654.85 42.31 658.49 42.31C662.13 42.31 665.467 43.0467 668.5 44.52C671.534 45.9933 674.134 48.2033 676.3 51.15C678.467 54.01 680.157 57.5633 681.37 61.81C682.584 65.97 683.19 70.78 683.19 76.24C683.19 81.7 682.54 86.5533 681.24 90.8C680.027 95.0467 678.294 98.6433 676.04 101.59C673.874 104.45 671.187 106.617 667.98 108.09C664.86 109.563 661.437 110.3 657.71 110.3C650.864 110.3 645.447 107.31 641.46 101.33V127.85H625.99V43.61H640.29L641.07 52.06ZM653.81 98.08C658.317 98.08 661.654 96.3467 663.82 92.88C666.074 89.4133 667.2 83.8667 667.2 76.24C667.2 68.6133 666.16 63.11 664.08 59.73C662 56.2633 658.837 54.53 654.59 54.53C650.257 54.53 647.007 56.1767 644.84 59.47C642.674 62.7633 641.547 68.05 641.46 75.33V76.37C641.46 83.9967 642.457 89.5433 644.45 93.01C646.53 96.39 649.65 98.08 653.81 98.08ZM726.939 79.23H724.729C718.056 79.23 713.289 80.01 710.429 81.57C707.569 83.0433 706.139 85.6433 706.139 89.37C706.139 92.1433 706.919 94.3967 708.479 96.13C710.126 97.7767 712.596 98.6 715.889 98.6C718.663 98.6 720.959 98.1233 722.779 97.17C724.599 96.13 725.986 94.8733 726.939 93.4V79.23ZM742.409 93.01C742.409 98.3833 742.669 103.713 743.189 109H728.109C727.849 108.307 727.589 107.483 727.329 106.53C727.156 105.577 727.026 104.667 726.939 103.8H726.289C724.816 105.36 722.909 106.79 720.569 108.09C718.229 109.303 714.806 109.91 710.299 109.91C704.319 109.91 699.466 108.133 695.739 104.58C692.099 101.027 690.279 95.9133 690.279 89.24C690.279 82.5667 693.009 77.41 698.469 73.77C703.929 70.0433 712.596 68.18 724.469 68.18H726.939V64.54C726.939 60.9867 726.073 58.5167 724.339 57.13C722.606 55.6567 719.876 54.92 716.149 54.92C714.156 54.92 712.119 55.1367 710.039 55.57C707.959 55.9167 705.966 56.3933 704.059 57C702.239 57.6067 700.506 58.3 698.859 59.08C697.299 59.86 695.999 60.64 694.959 61.42V48.55C697.299 47.1633 700.419 45.82 704.319 44.52C708.219 43.22 712.769 42.57 717.969 42.57C726.203 42.57 732.313 44.2167 736.299 47.51C740.373 50.8033 742.409 56.4367 742.409 64.41V93.01ZM770.318 77.41V109H754.848V43.61H770.318V74.29L792.158 43.61H807.758L785.918 74.29L810.748 109H793.198L770.318 77.41ZM847.713 55.83V109H832.243V55.83H814.043V43.61H865.913V55.83H847.713ZM890.022 43.61V84.17L913.682 43.61H927.462V109H912.512V68.57L888.852 109H875.072V43.61H890.022ZM955.923 77.41V109H940.453V43.61H955.923V74.29L977.763 43.61H993.363L971.523 74.29L996.353 109H978.803L955.923 77.41ZM1011.87 129.15C1010.31 129.15 1009.01 129.02 1007.97 128.76C1006.93 128.587 1006.06 128.37 1005.37 128.11C1004.59 127.763 1003.94 127.373 1003.42 126.94V114.33C1005.15 116.063 1007.49 116.93 1010.44 116.93C1012.61 116.93 1014.34 116.453 1015.64 115.5C1016.94 114.633 1018.02 113.42 1018.89 111.86L996.399 43.61H1012.65L1027.08 92.88L1041.51 43.61H1056.46L1036.05 105.49C1034.92 108.87 1033.71 111.99 1032.41 114.85C1031.11 117.71 1029.55 120.18 1027.73 122.26C1025.91 124.427 1023.7 126.117 1021.1 127.33C1018.59 128.543 1015.51 129.15 1011.87 129.15ZM1133.18 109H1118.1V60.12L1102.24 109H1089.63L1075.46 60.25V109H1062.33V43.61H1084.82L1097.56 87.16L1111.73 43.61H1132.92L1133.18 109Z" fill="#1E1E1E"/>
</svg>
