<svg width="867" height="130" viewBox="0 0 867 130" fill="none" xmlns="http://www.w3.org/2000/svg">
<g clip-path="url(#clip0_14_111)">
<circle cx="60" cy="64" r="60" fill="#FC3F1D"/>
<path d="M68.4558 100.06H80.991V28.0601H62.7579C44.4212 28.0601 34.7867 37.4874 34.7867 51.3694C34.7867 62.4543 40.0702 68.9809 49.4975 75.7147L33.1292 100.06H46.7004L64.9335 72.814L58.614 68.5665C50.9479 63.3867 47.2184 59.3464 47.2184 50.6442C47.2184 42.978 52.6054 37.7982 62.8615 37.7982H68.4558V100.06Z" fill="white"/>
</g>
<rect x="128" y="4" width="120" height="120" rx="45" fill="white"/>
<path fill-rule="evenodd" clip-rule="evenodd" d="M190.25 18.7L190.25 59.6779L223.572 36.346L226.153 40.0322L192.487 63.6047L229.751 80.9811L227.849 85.0594L190.25 67.5266V109H185.75V89.7179L182.402 108.707L177.97 107.926L182.732 80.9198L171.234 105.576L167.156 103.674L181.9 72.0555L154.974 94.6489L152.082 91.2017L181.087 66.8634L143.367 70.1634L142.975 65.6805L182.393 62.232L152.082 36.7982L154.974 33.351L185.75 59.1749L185.75 18.7H190.25Z" fill="#1E1E1E"/>
<path d="M340.04 18.65V109H324.31V30.87H296.23V109H280.5V18.65H340.04ZM368.07 52.06C370.064 48.8533 372.534 46.4267 375.48 44.78C378.514 43.1333 381.85 42.31 385.49 42.31C389.13 42.31 392.467 43.0467 395.5 44.52C398.534 45.9933 401.134 48.2033 403.3 51.15C405.467 54.01 407.157 57.5633 408.37 61.81C409.584 65.97 410.19 70.78 410.19 76.24C410.19 81.7 409.54 86.5533 408.24 90.8C407.027 95.0467 405.294 98.6433 403.04 101.59C400.874 104.45 398.187 106.617 394.98 108.09C391.86 109.563 388.437 110.3 384.71 110.3C377.864 110.3 372.447 107.31 368.46 101.33V127.85H352.99V43.61H367.29L368.07 52.06ZM380.81 98.08C385.317 98.08 388.654 96.3467 390.82 92.88C393.074 89.4133 394.2 83.8667 394.2 76.24C394.2 68.6133 393.16 63.11 391.08 59.73C389 56.2633 385.837 54.53 381.59 54.53C377.257 54.53 374.007 56.1767 371.84 59.47C369.674 62.7633 368.547 68.05 368.46 75.33V76.37C368.46 83.9967 369.457 89.5433 371.45 93.01C373.53 96.39 376.65 98.08 380.81 98.08ZM453.939 79.23H451.729C445.056 79.23 440.289 80.01 437.429 81.57C434.569 83.0433 433.139 85.6433 433.139 89.37C433.139 92.1433 433.919 94.3967 435.479 96.13C437.126 97.7767 439.596 98.6 442.889 98.6C445.663 98.6 447.959 98.1233 449.779 97.17C451.599 96.13 452.986 94.8733 453.939 93.4V79.23ZM469.409 93.01C469.409 98.3833 469.669 103.713 470.189 109H455.109C454.849 108.307 454.589 107.483 454.329 106.53C454.156 105.577 454.026 104.667 453.939 103.8H453.289C451.816 105.36 449.909 106.79 447.569 108.09C445.229 109.303 441.806 109.91 437.299 109.91C431.319 109.91 426.466 108.133 422.739 104.58C419.099 101.027 417.279 95.9133 417.279 89.24C417.279 82.5667 420.009 77.41 425.469 73.77C430.929 70.0433 439.596 68.18 451.469 68.18H453.939V64.54C453.939 60.9867 453.073 58.5167 451.339 57.13C449.606 55.6567 446.876 54.92 443.149 54.92C441.156 54.92 439.119 55.1367 437.039 55.57C434.959 55.9167 432.966 56.3933 431.059 57C429.239 57.6067 427.506 58.3 425.859 59.08C424.299 59.86 422.999 60.64 421.959 61.42V48.55C424.299 47.1633 427.419 45.82 431.319 44.52C435.219 43.22 439.769 42.57 444.969 42.57C453.203 42.57 459.313 44.2167 463.299 47.51C467.373 50.8033 469.409 56.4367 469.409 64.41V93.01ZM497.318 77.41V109H481.848V43.61H497.318V74.29L519.158 43.61H534.758L512.918 74.29L537.748 109H520.198L497.318 77.41ZM574.713 55.83V109H559.243V55.83H541.043V43.61H592.913V55.83H574.713ZM617.022 43.61V84.17L640.682 43.61H654.462V109H639.512V68.57L615.852 109H602.072V43.61H617.022ZM682.923 77.41V109H667.453V43.61H682.923V74.29L704.763 43.61H720.363L698.523 74.29L723.353 109H705.803L682.923 77.41ZM738.869 129.15C737.309 129.15 736.009 129.02 734.969 128.76C733.929 128.587 733.062 128.37 732.369 128.11C731.589 127.763 730.939 127.373 730.419 126.94V114.33C732.152 116.063 734.492 116.93 737.439 116.93C739.605 116.93 741.339 116.453 742.639 115.5C743.939 114.633 745.022 113.42 745.889 111.86L723.399 43.61H739.649L754.079 92.88L768.509 43.61H783.459L763.049 105.49C761.922 108.87 760.709 111.99 759.409 114.85C758.109 117.71 756.549 120.18 754.729 122.26C752.909 124.427 750.699 126.117 748.099 127.33C745.585 128.543 742.509 129.15 738.869 129.15ZM860.178 109H845.098V60.12L829.238 109H816.628L802.458 60.25V109H789.328V43.61H811.818L824.558 87.16L838.728 43.61H859.918L860.178 109Z" fill="white"/>
<defs>
<clipPath id="clip0_14_111">
<rect width="120" height="120" fill="white" transform="translate(0 4)"/>
</clipPath>
</defs>
</svg>
