<svg width="978" height="111" viewBox="0 0 978 111" fill="none" xmlns="http://www.w3.org/2000/svg">
<path d="M193.18 105.65H180.18V90.6996H144.17V105.65H131.17V79.2596H135.46C136.847 76.4863 137.973 73.1929 138.84 69.3796C139.707 65.4796 140.4 61.3629 140.92 57.0296C141.44 52.6963 141.787 48.2763 141.96 43.7696C142.133 39.2629 142.22 34.9729 142.22 30.8996V25.3096H186.29V79.2596H193.18V105.65ZM44.33 12.5696H37.31C30.81 12.5696 25.9133 14.0429 22.62 16.9896C19.3267 19.9363 17.68 23.8363 17.68 28.6896C17.68 31.4629 17.9833 33.8896 18.59 35.9696C19.1967 37.9629 20.0633 39.8263 21.19 41.5596C22.4033 43.2929 23.8767 44.9396 25.61 46.4996C27.43 47.9729 29.5533 49.5329 31.98 51.1796L39.91 56.5096L17.03 90.6996H0L20.54 60.1496C17.5933 58.0696 14.95 55.9463 12.61 53.7796C10.3567 51.6129 8.45 49.3163 6.89 46.8896C5.33 44.4629 4.11667 41.8629 3.25 39.0896C2.47 36.2296 2.08 33.0663 2.08 29.5996C2.08 25.2663 2.81667 21.3229 4.29 17.7696C5.85 14.1296 8.10333 11.0529 11.05 8.53961C13.9967 5.93961 17.6367 3.94628 21.97 2.55961C26.39 1.08628 31.46 0.349609 37.18 0.349609H60.06V90.6996H44.33V12.5696ZM212.94 63.1396C213.2 69.0329 214.587 73.4096 217.1 76.2696C219.613 79.1296 223.86 80.5596 229.84 80.5596C233.48 80.5596 237.077 79.953 240.63 78.7396C244.27 77.4396 247.26 76.0096 249.6 74.4496V86.2796C247.347 87.8396 244.487 89.1829 241.02 90.3096C237.553 91.4363 233.393 91.9996 228.54 91.9996C218.833 91.9996 211.337 89.2263 206.05 83.6796C200.85 78.133 198.25 69.6396 198.25 58.1996C198.25 53.2596 198.77 48.7096 199.81 44.5496C200.937 40.3896 202.627 36.7929 204.88 33.7596C207.133 30.6396 209.95 28.2563 213.33 26.6096C216.797 24.8763 220.827 24.0096 225.42 24.0096C229.147 24.0096 232.527 24.5729 235.56 25.6996C238.68 26.8263 241.323 28.6463 243.49 31.1596C245.657 33.6729 247.303 36.9229 248.43 40.9096C249.643 44.8096 250.25 49.6196 250.25 55.3396V63.1396H212.94ZM123.37 25.3096V90.6996H109.2V63.0096H87.23V90.6996H73.06V25.3096H87.23V51.5696H109.2V25.3096H123.37ZM276.12 57.8096V90.6996H261.95V25.3096H276.12V56.8996L299 25.3096H313.82L291.59 55.9896L316.68 90.6996H300.04L276.12 57.8096ZM346.97 91.9996C336.743 91.9996 329.16 89.0963 324.22 83.2896C319.367 77.4829 316.94 69.0763 316.94 58.0696C316.94 53.1296 317.547 48.5796 318.76 44.4196C320.06 40.1729 321.923 36.5763 324.35 33.6296C326.863 30.5963 329.94 28.2563 333.58 26.6096C337.22 24.8763 341.467 24.0096 346.32 24.0096C350.047 24.0096 353.253 24.3129 355.94 24.9196C358.627 25.4396 360.75 26.1763 362.31 27.1296V39.6096C360.837 38.6563 358.8 37.7463 356.2 36.8796C353.6 36.0129 350.87 35.5796 348.01 35.5796C342.723 35.5796 338.65 37.4429 335.79 41.1696C333.017 44.8096 331.63 50.3129 331.63 57.6796C331.63 64.6996 332.887 70.2463 335.4 74.3196C337.913 78.393 342.073 80.4296 347.88 80.4296C351 80.4296 353.687 80.0396 355.94 79.2596C358.28 78.3929 360.403 77.3096 362.31 76.0096V87.9696C360.49 89.2696 358.323 90.2663 355.81 90.9596C353.383 91.653 350.437 91.9996 346.97 91.9996ZM172.12 36.7496H154.7V39.4796C154.7 42.3396 154.613 45.5463 154.44 49.0996C154.267 52.6529 153.963 56.2496 153.53 59.8896C153.097 63.5296 152.49 67.0396 151.71 70.4196C151.017 73.7996 150.107 76.7463 148.98 79.2596H172.12V36.7496ZM225.16 35.4496C221.173 35.4496 218.183 36.9229 216.19 39.8696C214.197 42.7296 213.113 46.9329 212.94 52.4796H235.82V50.7896C235.82 48.6229 235.647 46.6296 235.3 44.8096C234.953 42.9029 234.347 41.2563 233.48 39.8696C232.7 38.4829 231.617 37.3996 230.23 36.6196C228.93 35.8396 227.24 35.4496 225.16 35.4496Z" fill="white"/>
<path d="M977.295 90.35H962.215V41.47L946.355 90.35H933.745L919.575 41.6V90.35H906.445V24.96H928.935L941.675 68.51L955.845 24.96H977.035L977.295 90.35Z" fill="white"/>
<path d="M855.986 110.5C854.426 110.5 853.126 110.37 852.086 110.11C851.046 109.937 850.179 109.72 849.486 109.46C848.706 109.113 848.056 108.723 847.536 108.29V95.68C849.269 97.4133 851.609 98.28 854.556 98.28C856.723 98.28 858.456 97.8033 859.756 96.85C861.056 95.9833 862.139 94.77 863.006 93.21L840.516 24.96H856.766L871.196 74.23L885.626 24.96H900.576L880.166 86.84C879.039 90.22 877.826 93.34 876.526 96.2C875.226 99.06 873.666 101.53 871.846 103.61C870.026 105.777 867.816 107.467 865.216 108.68C862.703 109.893 859.626 110.5 855.986 110.5Z" fill="white"/>
<path d="M800.04 58.76V90.35H784.57V24.96H800.04V55.64L821.88 24.96H837.48L815.64 55.64L840.47 90.35H822.92L800.04 58.76Z" fill="white"/>
<path d="M734.139 24.96V65.52L757.799 24.96H771.579V90.35H756.629V49.92L732.969 90.35H719.189V24.96H734.139Z" fill="white"/>
<path d="M691.831 37.18V90.35H676.361V37.18H658.161V24.96H710.031V37.18H691.831Z" fill="white"/>
<path d="M614.435 58.76V90.35H598.965V24.96H614.435V55.64L636.275 24.96H651.875L630.035 55.64L654.865 90.35H637.315L614.435 58.76Z" fill="white"/>
<path d="M571.056 60.58H568.846C562.173 60.58 557.406 61.36 554.546 62.92C551.686 64.3933 550.256 66.9933 550.256 70.72C550.256 73.4933 551.036 75.7467 552.596 77.48C554.243 79.1267 556.713 79.95 560.006 79.95C562.78 79.95 565.076 79.4733 566.896 78.52C568.716 77.48 570.103 76.2233 571.056 74.75V60.58ZM586.526 74.36C586.526 79.7333 586.786 85.0633 587.306 90.35H572.226C571.966 89.6567 571.706 88.8333 571.446 87.88C571.273 86.9267 571.143 86.0167 571.056 85.15H570.406C568.933 86.71 567.026 88.14 564.686 89.44C562.346 90.6533 558.923 91.26 554.416 91.26C548.436 91.26 543.583 89.4833 539.856 85.93C536.216 82.3767 534.396 77.2633 534.396 70.59C534.396 63.9167 537.126 58.76 542.586 55.12C548.046 51.3933 556.713 49.53 568.586 49.53H571.056V45.89C571.056 42.3367 570.19 39.8667 568.456 38.48C566.723 37.0067 563.993 36.27 560.266 36.27C558.273 36.27 556.236 36.4867 554.156 36.92C552.076 37.2667 550.083 37.7433 548.176 38.35C546.356 38.9567 544.623 39.65 542.976 40.43C541.416 41.21 540.116 41.99 539.076 42.77V29.9C541.416 28.5133 544.536 27.17 548.436 25.87C552.336 24.57 556.886 23.92 562.086 23.92C570.32 23.92 576.43 25.5667 580.416 28.86C584.49 32.1533 586.526 37.7867 586.526 45.76V74.36Z" fill="white"/>
<path d="M485.187 33.41C487.181 30.2033 489.651 27.7767 492.597 26.13C495.631 24.4833 498.967 23.66 502.607 23.66C506.247 23.66 509.584 24.3967 512.617 25.87C515.651 27.3433 518.251 29.5533 520.417 32.5C522.584 35.36 524.274 38.9133 525.487 43.16C526.701 47.32 527.307 52.13 527.307 57.59C527.307 63.05 526.657 67.9033 525.357 72.15C524.144 76.3967 522.411 79.9933 520.157 82.94C517.991 85.8 515.304 87.9667 512.097 89.44C508.977 90.9133 505.554 91.65 501.827 91.65C494.981 91.65 489.564 88.66 485.577 82.68V109.2H470.107V24.96H484.407L485.187 33.41ZM497.927 79.43C502.434 79.43 505.771 77.6967 507.937 74.23C510.191 70.7633 511.317 65.2167 511.317 57.59C511.317 49.9633 510.277 44.46 508.197 41.08C506.117 37.6133 502.954 35.88 498.707 35.88C494.374 35.88 491.124 37.5267 488.957 40.82C486.791 44.1133 485.664 49.4 485.577 56.68V57.72C485.577 65.3467 486.574 70.8933 488.567 74.36C490.647 77.74 493.767 79.43 497.927 79.43Z" fill="white"/>
<path d="M457.157 0V90.35H441.427V12.22H413.347V90.35H397.617V0H457.157Z" fill="white"/>
</svg>
