<svg width="658" height="114" viewBox="0 0 658 114" fill="none" xmlns="http://www.w3.org/2000/svg">
<circle cx="54.3987" cy="54.3987" r="54.3987" fill="#FC3F1D"/>
<path d="M61.233 31.6086H56.3745C47.4672 31.6086 42.7822 36.1201 42.7822 42.7716C42.7822 50.2907 46.0212 53.8189 52.6727 58.3304L58.1675 62.0321L42.3773 85.6305H30.5781L44.7488 64.5192C36.5934 58.6774 32.0241 53.0091 32.0241 43.4078C32.0241 31.3772 40.4108 23.1641 56.3166 23.1641H72.1067V85.5727H61.233V31.6086Z" fill="white"/>
<path d="M138.309 13.2812H192.29V95.1967H178.029V24.3605H152.57V95.1967H138.309V13.2812Z" fill="#1E1E1E"/>
<path d="M216.997 35.9111L217.704 43.5723C221.475 37.7969 226.897 34.7325 233.498 34.7325C246.698 34.7325 255.892 45.6938 255.892 65.495C255.892 85.414 246.463 96.3753 232.79 96.3753C226.779 96.3753 221.593 93.5466 218.057 88.2427V112.287H204.032V35.9111H216.997ZM229.254 85.2961C237.387 85.2961 241.394 79.285 241.394 65.495C241.394 51.8227 237.623 45.8117 229.962 45.8117C222.065 45.8117 218.057 51.8227 218.057 65.6128C218.057 79.285 221.829 85.2961 229.254 85.2961Z" fill="#1E1E1E"/>
<path d="M309.007 54.7693V80.6994C309.007 85.5318 309.243 90.3642 309.714 95.1967H296.042C295.57 94.018 295.099 92.0143 294.981 90.4821H294.392C291.681 93.3108 288.145 96.0217 279.894 96.0217C269.051 96.0217 261.743 89.3035 261.743 77.2814C261.743 65.2592 271.29 58.1874 292.742 58.1874H294.981V54.8872C294.981 48.5226 291.917 46.1653 285.198 46.1653C278.009 46.1653 269.758 49.2297 265.987 52.0585V40.3899C270.23 37.9148 277.537 34.9682 286.848 34.9682C301.699 34.9682 309.007 40.3899 309.007 54.7693ZM294.981 81.053V67.4986H292.977C280.955 67.4986 276.123 69.9738 276.123 76.9278C276.123 82.2316 279.069 85.7676 284.963 85.7676C289.913 85.7676 293.213 83.646 294.981 81.053Z" fill="#1E1E1E"/>
<path d="M355.054 95.1967L334.31 66.0843V95.1967H320.284V35.9111H334.31V63.2555L354.111 35.9111H368.255L348.453 63.2555L370.965 95.1967H355.054Z" fill="#1E1E1E"/>
<path d="M417.413 46.9903H400.912V95.1967H386.886V46.9903H370.385V35.9111H417.413V46.9903Z" fill="#1E1E1E"/>
<path d="M425.717 35.9111H439.389V72.5668L461.076 35.9111H473.216V95.1967H459.544V58.541L437.857 95.1967H425.717V35.9111Z" fill="#1E1E1E"/>
<path d="M519.764 95.1967L499.02 66.0843V95.1967H484.994V35.9111H499.02V63.2555L518.821 35.9111H532.965L513.164 63.2555L535.676 95.1967H519.764Z" fill="#1E1E1E"/>
<path d="M548.016 113.466C542.477 113.466 540.355 111.462 540.355 111.462V100.029C541.887 101.561 544.127 102.386 546.72 102.386C550.609 102.386 552.849 100.618 554.381 97.7897L533.991 35.9111H548.724L561.806 80.4637L574.889 35.9111H588.444L569.939 92.0143C565.932 104.154 561.099 113.466 548.016 113.466Z" fill="#1E1E1E"/>
<path d="M644.329 95.1967V50.8798L629.949 95.1967H618.517L605.669 50.8798V95.1967H593.765V35.9111H614.156L625.706 75.3955L638.553 35.9111H657.765L658.001 95.1967H644.329Z" fill="#1E1E1E"/>
</svg>
