<svg width="789" height="128" viewBox="0 0 789 128" fill="none" xmlns="http://www.w3.org/2000/svg">
<circle cx="60" cy="64" r="60" fill="#FC3F1D"/>
<path d="M61.7437 69.7294C65.257 77.4253 66.4281 80.1022 66.4281 89.3457V101.601H53.8804V80.9387L30.207 29.4512H43.2985L61.7437 69.7294ZM77.2192 29.4512L61.8691 64.3339H74.626L90.0179 29.4512H77.2192Z" fill="white"/>
<rect x="128" y="4" width="120" height="120" rx="45" fill="#1E1E1E"/>
<path d="M187.931 109.014V63.8546M187.931 18.6953V63.8546M187.931 63.8546L153.453 35.0744M187.931 63.8546L224.8 38.1728M187.931 63.8546L228.754 83.0269M187.931 63.8546L153.486 92.9027M187.931 63.8546L180.149 108.28M187.931 63.8546L143.145 67.9615M187.931 63.8546L168.96 104.83" stroke="white" stroke-width="4.49561"/>
<path d="M304.03 18.65C314.777 18.65 323.053 21.12 328.86 26.06C334.667 31 337.57 38.0633 337.57 47.25C337.57 52.2767 336.747 56.6533 335.1 60.38C333.54 64.02 331.287 67.0533 328.34 69.48C325.48 71.9067 321.97 73.7267 317.81 74.94C313.65 76.1533 309.013 76.76 303.9 76.76H296.23V109H280.5V18.65H304.03ZM304.03 64.54C309.49 64.54 313.78 63.1533 316.9 60.38C320.02 57.6067 321.58 53.23 321.58 47.25C321.58 41.53 320.107 37.37 317.16 34.77C314.3 32.17 310.097 30.87 304.55 30.87H296.23V64.54H304.03ZM362.113 109H346.643V43.61H361.723L362.113 56.61H362.503C364.323 52.2767 366.966 48.8533 370.433 46.34C373.899 43.8267 377.843 42.44 382.263 42.18V56.74C377.496 56.48 373.466 57.3467 370.173 59.34C366.966 61.2467 364.279 64.1933 362.113 68.18V109ZM424.105 79.23H421.895C415.222 79.23 410.455 80.01 407.595 81.57C404.735 83.0433 403.305 85.6433 403.305 89.37C403.305 92.1433 404.085 94.3967 405.645 96.13C407.292 97.7767 409.762 98.6 413.055 98.6C415.829 98.6 418.125 98.1233 419.945 97.17C421.765 96.13 423.152 94.8733 424.105 93.4V79.23ZM439.575 93.01C439.575 98.3833 439.835 103.713 440.355 109H425.275C425.015 108.307 424.755 107.483 424.495 106.53C424.322 105.577 424.192 104.667 424.105 103.8H423.455C421.982 105.36 420.075 106.79 417.735 108.09C415.395 109.303 411.972 109.91 407.465 109.91C401.485 109.91 396.632 108.133 392.905 104.58C389.265 101.027 387.445 95.9133 387.445 89.24C387.445 82.5667 390.175 77.41 395.635 73.77C401.095 70.0433 409.762 68.18 421.635 68.18H424.105V64.54C424.105 60.9867 423.239 58.5167 421.505 57.13C419.772 55.6567 417.042 54.92 413.315 54.92C411.322 54.92 409.285 55.1367 407.205 55.57C405.125 55.9167 403.132 56.3933 401.225 57C399.405 57.6067 397.672 58.3 396.025 59.08C394.465 59.86 393.165 60.64 392.125 61.42V48.55C394.465 47.1633 397.585 45.82 401.485 44.52C405.385 43.22 409.935 42.57 415.135 42.57C423.369 42.57 429.479 44.2167 433.465 47.51C437.539 50.8033 439.575 56.4367 439.575 64.41V93.01ZM480.094 110.3C469.694 110.3 461.98 107.397 456.954 101.59C451.927 95.7833 449.414 87.3767 449.414 76.37C449.414 71.43 450.02 66.88 451.234 62.72C452.534 58.4733 454.44 54.8767 456.954 51.93C459.554 48.8967 462.717 46.5567 466.444 44.91C470.17 43.1767 474.504 42.31 479.444 42.31C483.344 42.31 486.68 42.6133 489.454 43.22C492.227 43.74 494.437 44.4767 496.084 45.43V58.56C494.524 57.6067 492.4 56.6967 489.714 55.83C487.027 54.9633 484.167 54.53 481.134 54.53C476.02 54.53 472.12 56.35 469.434 59.99C466.747 63.5433 465.404 68.8733 465.404 75.98C465.404 82.74 466.617 88.1133 469.044 92.1C471.47 96.0867 475.457 98.08 481.004 98.08C484.297 98.08 487.114 97.69 489.454 96.91C491.88 96.13 494.09 95.0467 496.084 93.66V106.27C492.357 108.957 487.027 110.3 480.094 110.3ZM524.937 29.31V43.61H541.187V55.83H524.937V89.5C524.937 91.9267 525.673 93.9633 527.147 95.61C528.707 97.2567 531.133 98.08 534.427 98.08C535.727 98.08 536.853 97.9933 537.807 97.82C538.847 97.56 539.713 97.3 540.407 97.04C541.187 96.6933 541.88 96.3467 542.487 96V108.61C541.533 108.957 540.493 109.26 539.367 109.52C538.327 109.693 537.07 109.867 535.597 110.04C534.21 110.213 532.563 110.3 530.657 110.3C527.103 110.3 523.983 109.78 521.297 108.74C518.61 107.7 516.4 106.27 514.667 104.45C512.933 102.543 511.633 100.333 510.767 97.82C509.9 95.22 509.467 92.4033 509.467 89.37V55.83H501.277V43.61H509.467V29.31H524.937ZM565.745 43.61V109H550.275V43.61H565.745ZM557.945 35.55C555.432 35.55 553.309 34.7267 551.575 33.08C549.842 31.4333 548.975 29.2233 548.975 26.45C548.975 23.6767 549.842 21.4667 551.575 19.82C553.309 18.1733 555.432 17.35 557.945 17.35C560.459 17.35 562.582 18.1733 564.315 19.82C566.135 21.4667 567.045 23.6767 567.045 26.45C567.045 29.2233 566.135 31.4333 564.315 33.08C562.582 34.7267 560.459 35.55 557.945 35.55ZM606.793 110.3C596.393 110.3 588.68 107.397 583.653 101.59C578.626 95.7833 576.113 87.3767 576.113 76.37C576.113 71.43 576.72 66.88 577.933 62.72C579.233 58.4733 581.14 54.8767 583.653 51.93C586.253 48.8967 589.416 46.5567 593.143 44.91C596.87 43.1767 601.203 42.31 606.143 42.31C610.043 42.31 613.38 42.6133 616.153 43.22C618.926 43.74 621.136 44.4767 622.783 45.43V58.56C621.223 57.6067 619.1 56.6967 616.413 55.83C613.726 54.9633 610.866 54.53 607.833 54.53C602.72 54.53 598.82 56.35 596.133 59.99C593.446 63.5433 592.103 68.8733 592.103 75.98C592.103 82.74 593.316 88.1133 595.743 92.1C598.17 96.0867 602.156 98.08 607.703 98.08C610.996 98.08 613.813 97.69 616.153 96.91C618.58 96.13 620.79 95.0467 622.783 93.66V106.27C619.056 108.957 613.726 110.3 606.793 110.3ZM668.926 43.61H684.396V109H669.316L668.926 103.54H668.146C666.586 105.1 664.376 106.573 661.516 107.96C658.742 109.347 655.016 110.04 650.336 110.04C644.009 110.04 639.459 108.567 636.686 105.62C633.912 102.587 632.526 97.82 632.526 91.32V43.61H647.996V89.76C647.996 94.6133 650.639 97.04 655.926 97.04C658.699 97.04 661.169 96.39 663.336 95.09C665.589 93.79 667.452 92.2733 668.926 90.54V43.61ZM747.984 109H732.514V62.85C732.514 60.3367 731.994 58.5167 730.954 57.39C729.914 56.1767 728.007 55.57 725.234 55.57C722.461 55.57 720.077 56.22 718.084 57.52C716.091 58.82 714.357 60.3367 712.884 62.07V109H697.414V43.61H712.494L712.884 49.07H713.664C715.224 47.51 717.217 46.0367 719.644 44.65C722.071 43.2633 725.581 42.57 730.174 42.57C738.407 42.57 743.737 45.3433 746.164 50.89C748.071 48.7233 750.541 46.8167 753.574 45.17C756.694 43.4367 760.811 42.57 765.924 42.57C772.251 42.57 776.671 44.0867 779.184 47.12C781.784 50.0667 783.084 54.79 783.084 61.29V109H767.614V62.85C767.614 60.3367 767.094 58.5167 766.054 57.39C765.014 56.1767 763.107 55.57 760.334 55.57C757.561 55.57 755.177 56.22 753.184 57.52C751.191 58.82 749.457 60.3367 747.984 62.07V109Z" fill="#1E1E1E"/>
</svg>
