<svg width="775" height="120" viewBox="0 0 775 120" fill="none" xmlns="http://www.w3.org/2000/svg">
<g clip-path="url(#clip0_4_1792)">
<path d="M60 0C93.1371 0 120 26.8629 120 60C120 93.1371 93.1371 120 60 120C26.8629 120 0 93.1371 0 60C0 26.8629 26.8629 0 60 0ZM28.8281 24.9551L53.4365 78.4766V99.9551H66.4805V87.2158C66.4805 77.6072 65.2625 74.8242 61.6104 66.8242L42.4365 24.9551H28.8281ZM61.7412 61.2158H75.002L91.002 24.9551H77.6973L61.7412 61.2158Z" fill="#1E1E1E"/>
</g>
<g clip-path="url(#clip1_4_1792)">
<path d="M188 0C204.582 0 212.873 0.000392705 219.548 2.29883C231.826 6.5268 241.473 16.1737 245.701 28.4521C248 35.1273 248 43.4185 248 60C248 76.5815 248 84.8727 245.701 91.5479C241.473 103.826 231.826 113.473 219.548 117.701C212.873 120 204.582 120 188 120C171.418 120 163.127 120 156.452 117.701C144.174 113.473 134.527 103.826 130.299 91.5479C128 84.8727 128 76.5815 128 60C128 43.4185 128 35.1273 130.299 28.4521C134.527 16.1737 144.174 6.5268 156.452 2.29883C163.127 0.000392705 171.418 0 188 0ZM185.89 17.5312V55.4736L157.04 31.2666L154.328 34.499L182.744 58.3418L145.789 61.5752L146.157 65.7783L181.518 62.6846L154.326 85.502L157.038 88.7334L182.284 67.5488L168.459 97.1953L172.283 98.9775L183.06 75.8672L178.597 101.181L182.752 101.913L185.89 84.1191V102.188H190.108V63.3037L225.36 79.7432L227.143 75.9199L192.206 59.6279L223.77 37.5303L221.35 34.0752L190.108 55.9492V17.5312H185.89Z" fill="#1E1E1E"/>
</g>
<path d="M739.484 105.175H724.014V59.0254C724.014 56.5121 723.494 54.6921 722.454 53.5654C721.414 52.3521 719.507 51.7454 716.734 51.7454C713.961 51.7454 711.577 52.3954 709.584 53.6954C707.591 54.9954 705.857 56.5121 704.384 58.2454V105.175H688.914V39.7854H703.994L704.384 45.2454H705.164C706.724 43.6854 708.717 42.2121 711.144 40.8254C713.571 39.4387 717.081 38.7454 721.674 38.7454C729.907 38.7454 735.237 41.5187 737.664 47.0654C739.571 44.8987 742.041 42.9921 745.074 41.3454C748.194 39.6121 752.311 38.7454 757.424 38.7454C763.751 38.7454 768.171 40.2621 770.684 43.2954C773.284 46.2421 774.584 50.9654 774.584 57.4654V105.175H759.114V59.0254C759.114 56.5121 758.594 54.6921 757.554 53.5654C756.514 52.3521 754.607 51.7454 751.834 51.7454C749.061 51.7454 746.677 52.3954 744.684 53.6954C742.691 54.9954 740.957 56.5121 739.484 58.2454V105.175Z" fill="#1E1E1E"/>
<path d="M660.426 39.7854H675.896V105.175H660.816L660.426 99.7154H659.646C658.086 101.275 655.876 102.749 653.016 104.135C650.242 105.522 646.516 106.215 641.836 106.215C635.509 106.215 630.959 104.742 628.186 101.795C625.412 98.7621 624.026 93.9954 624.026 87.4954V39.7854H639.496V85.9354C639.496 90.7887 642.139 93.2154 647.426 93.2154C650.199 93.2154 652.669 92.5654 654.836 91.2654C657.089 89.9654 658.952 88.4487 660.426 86.7154V39.7854Z" fill="#1E1E1E"/>
<path d="M598.293 106.475C587.893 106.475 580.18 103.572 575.153 97.7654C570.126 91.9587 567.613 83.5521 567.613 72.5454C567.613 67.6054 568.22 63.0554 569.433 58.8954C570.733 54.6487 572.64 51.0521 575.153 48.1054C577.753 45.0721 580.916 42.7321 584.643 41.0854C588.37 39.3521 592.703 38.4854 597.643 38.4854C601.543 38.4854 604.88 38.7887 607.653 39.3954C610.426 39.9154 612.636 40.6521 614.283 41.6054V54.7354C612.723 53.7821 610.6 52.8721 607.913 52.0054C605.226 51.1387 602.366 50.7054 599.333 50.7054C594.22 50.7054 590.32 52.5254 587.633 56.1654C584.946 59.7187 583.603 65.0487 583.603 72.1554C583.603 78.9154 584.816 84.2887 587.243 88.2754C589.67 92.2621 593.656 94.2554 599.203 94.2554C602.496 94.2554 605.313 93.8654 607.653 93.0854C610.08 92.3054 612.29 91.2221 614.283 89.8354V102.445C610.556 105.132 605.226 106.475 598.293 106.475Z" fill="#1E1E1E"/>
<path d="M557.245 39.7854V105.175H541.775V39.7854H557.245ZM549.445 31.7254C546.932 31.7254 544.809 30.9021 543.075 29.2554C541.342 27.6087 540.475 25.3987 540.475 22.6254C540.475 19.8521 541.342 17.6421 543.075 15.9954C544.809 14.3487 546.932 13.5254 549.445 13.5254C551.959 13.5254 554.082 14.3487 555.815 15.9954C557.635 17.6421 558.545 19.8521 558.545 22.6254C558.545 25.3987 557.635 27.6087 555.815 29.2554C554.082 30.9021 551.959 31.7254 549.445 31.7254Z" fill="#1E1E1E"/>
<path d="M516.437 25.4854V39.7854H532.687V52.0054H516.437V85.6754C516.437 88.1021 517.173 90.1387 518.647 91.7854C520.207 93.4321 522.633 94.2554 525.927 94.2554C527.227 94.2554 528.353 94.1687 529.307 93.9954C530.347 93.7354 531.213 93.4754 531.907 93.2154C532.687 92.8687 533.38 92.5221 533.987 92.1754V104.785C533.033 105.132 531.993 105.435 530.867 105.695C529.827 105.869 528.57 106.042 527.097 106.215C525.71 106.389 524.063 106.475 522.157 106.475C518.603 106.475 515.483 105.955 512.797 104.915C510.11 103.875 507.9 102.445 506.167 100.625C504.433 98.7187 503.133 96.5087 502.267 93.9954C501.4 91.3954 500.967 88.5787 500.967 85.5454V52.0054H492.777V39.7854H500.967V25.4854H516.437Z" fill="#1E1E1E"/>
<path d="M471.594 106.475C461.194 106.475 453.48 103.572 448.454 97.7654C443.427 91.9587 440.914 83.5521 440.914 72.5454C440.914 67.6054 441.52 63.0554 442.734 58.8954C444.034 54.6487 445.94 51.0521 448.454 48.1054C451.054 45.0721 454.217 42.7321 457.944 41.0854C461.67 39.3521 466.004 38.4854 470.944 38.4854C474.844 38.4854 478.18 38.7887 480.954 39.3954C483.727 39.9154 485.937 40.6521 487.584 41.6054V54.7354C486.024 53.7821 483.9 52.8721 481.214 52.0054C478.527 51.1387 475.667 50.7054 472.634 50.7054C467.52 50.7054 463.62 52.5254 460.934 56.1654C458.247 59.7187 456.904 65.0487 456.904 72.1554C456.904 78.9154 458.117 84.2887 460.544 88.2754C462.97 92.2621 466.957 94.2554 472.504 94.2554C475.797 94.2554 478.614 93.8654 480.954 93.0854C483.38 92.3054 485.59 91.2221 487.584 89.8354V102.445C483.857 105.132 478.527 106.475 471.594 106.475Z" fill="#1E1E1E"/>
<path d="M415.605 75.4054H413.395C406.722 75.4054 401.955 76.1854 399.095 77.7454C396.235 79.2187 394.805 81.8187 394.805 85.5454C394.805 88.3187 395.585 90.5721 397.145 92.3054C398.792 93.9521 401.262 94.7754 404.555 94.7754C407.329 94.7754 409.625 94.2987 411.445 93.3454C413.265 92.3054 414.652 91.0487 415.605 89.5754V75.4054ZM431.075 89.1854C431.075 94.5587 431.335 99.8887 431.855 105.175H416.775C416.515 104.482 416.255 103.659 415.995 102.705C415.822 101.752 415.692 100.842 415.605 99.9754H414.955C413.482 101.535 411.575 102.965 409.235 104.265C406.895 105.479 403.472 106.085 398.965 106.085C392.985 106.085 388.132 104.309 384.405 100.755C380.765 97.2021 378.945 92.0887 378.945 85.4154C378.945 78.7421 381.675 73.5854 387.135 69.9454C392.595 66.2187 401.262 64.3554 413.135 64.3554H415.605V60.7154C415.605 57.1621 414.739 54.6921 413.005 53.3054C411.272 51.8321 408.542 51.0954 404.815 51.0954C402.822 51.0954 400.785 51.3121 398.705 51.7454C396.625 52.0921 394.632 52.5687 392.725 53.1754C390.905 53.7821 389.172 54.4754 387.525 55.2554C385.965 56.0354 384.665 56.8154 383.625 57.5954V44.7254C385.965 43.3387 389.085 41.9954 392.985 40.6954C396.885 39.3954 401.435 38.7454 406.635 38.7454C414.869 38.7454 420.979 40.3921 424.965 43.6854C429.039 46.9787 431.075 52.6121 431.075 60.5854V89.1854Z" fill="#1E1E1E"/>
<path d="M353.613 105.175H338.143V39.7854H353.223L353.613 52.7854H354.003C355.823 48.4521 358.466 45.0287 361.933 42.5154C365.399 40.0021 369.343 38.6154 373.763 38.3554V52.9154C368.996 52.6554 364.966 53.5221 361.673 55.5154C358.466 57.4221 355.779 60.3687 353.613 64.3554V105.175Z" fill="#1E1E1E"/>
<path d="M295.53 14.8254C306.277 14.8254 314.553 17.2954 320.36 22.2354C326.167 27.1754 329.07 34.2387 329.07 43.4254C329.07 48.4521 328.247 52.8287 326.6 56.5554C325.04 60.1954 322.787 63.2287 319.84 65.6554C316.98 68.0821 313.47 69.9021 309.31 71.1154C305.15 72.3287 300.513 72.9354 295.4 72.9354H287.73V105.175H272V14.8254H295.53ZM295.53 60.7154C300.99 60.7154 305.28 59.3287 308.4 56.5554C311.52 53.7821 313.08 49.4054 313.08 43.4254C313.08 37.7054 311.607 33.5454 308.66 30.9454C305.8 28.3454 301.597 27.0454 296.05 27.0454H287.73V60.7154H295.53Z" fill="#1E1E1E"/>
<defs>
<clipPath id="clip0_4_1792">
<rect width="120" height="120" fill="white"/>
</clipPath>
<clipPath id="clip1_4_1792">
<rect width="120" height="120" fill="white" transform="translate(128)"/>
</clipPath>
</defs>
</svg>
