<svg width="1054" height="120" viewBox="0 0 1054 120" fill="none" xmlns="http://www.w3.org/2000/svg">
<path d="M237.25 95.1658C233.003 102.272 227.023 105.826 219.31 105.826C215.757 105.826 212.507 105.089 209.56 103.616C206.613 102.142 204.057 99.9758 201.89 97.1158C199.81 94.2558 198.163 90.7458 196.95 86.5858C195.823 82.4258 195.26 77.6591 195.26 72.2858C195.26 66.8258 195.867 61.9725 197.08 57.7258C198.293 53.3924 199.983 49.7958 202.15 46.9358C204.317 43.9891 206.917 41.7358 209.95 40.1758C212.983 38.6158 216.32 37.8358 219.96 37.8358C227.153 37.8358 232.83 41.1725 236.99 47.8458V14.1758H251.16V104.526H238.16L237.25 95.1658ZM119.08 88.5358C119.08 93.9091 119.34 99.2391 119.86 104.526H106.08C105.733 103.832 105.473 102.922 105.3 101.796C105.127 100.582 104.997 99.4991 104.91 98.5458H104.26C103.48 99.4125 102.613 100.279 101.66 101.146C100.707 101.926 99.58 102.662 98.28 103.356C96.98 103.962 95.4633 104.439 93.73 104.786C91.9967 105.219 89.96 105.436 87.62 105.436C81.8133 105.436 77.1333 103.659 73.58 100.106C70.0267 96.5525 68.25 91.4391 68.25 84.7658C68.25 78.2658 70.8933 73.1958 76.18 69.5558C81.5533 65.9158 90.09 64.0958 101.79 64.0958H104.91V60.0658C104.91 56.2525 103.957 53.5658 102.05 52.0058C100.23 50.4458 97.37 49.6658 93.47 49.6658C91.5633 49.6658 89.6133 49.8825 87.62 50.3158C85.6267 50.6625 83.6767 51.1391 81.77 51.7458C79.95 52.3525 78.26 53.0458 76.7 53.8258C75.2267 54.6058 73.97 55.3858 72.93 56.1658V44.0758C75.1833 42.6891 78.2167 41.3458 82.03 40.0458C85.8433 38.7458 90.2633 38.0958 95.29 38.0958C103.35 38.0958 109.33 39.7425 113.23 43.0358C117.13 46.3291 119.08 51.9624 119.08 59.9358V88.5358ZM277.03 76.9658C277.29 82.8591 278.677 87.2358 281.19 90.0958C283.703 92.9558 287.95 94.3858 293.93 94.3858C297.57 94.3858 301.167 93.7791 304.72 92.5658C308.36 91.2658 311.35 89.8358 313.69 88.2758V100.106C311.437 101.666 308.577 103.009 305.11 104.136C301.643 105.262 297.483 105.826 292.63 105.826C282.923 105.826 275.427 103.052 270.14 97.5058C264.94 91.9591 262.34 83.4658 262.34 72.0258C262.34 67.0858 262.86 62.5358 263.9 58.3758C265.027 54.2158 266.717 50.6191 268.97 47.5858C271.223 44.4658 274.04 42.0824 277.42 40.4358C280.887 38.7025 284.917 37.8358 289.51 37.8358C293.237 37.8358 296.617 38.3991 299.65 39.5258C302.77 40.6525 305.413 42.4725 307.58 44.9858C309.747 47.4991 311.393 50.7491 312.52 54.7358C313.733 58.6358 314.34 63.4458 314.34 69.1658V76.9658H277.03ZM147.16 104.526H132.99V39.1358H146.77L147.16 45.3758H147.94C148.72 44.5958 149.673 43.7725 150.8 42.9058C151.927 42.0391 153.227 41.2591 154.7 40.5658C156.26 39.7858 157.993 39.1791 159.9 38.7458C161.807 38.3124 163.973 38.0958 166.4 38.0958C172.467 38.0958 176.843 39.6125 179.53 42.6458C182.217 45.5925 183.56 50.3158 183.56 56.8158V104.526H169.39V58.3758C169.39 53.0025 166.53 50.3158 160.81 50.3158C157.863 50.3158 155.22 51.0525 152.88 52.5258C150.627 53.9125 148.72 55.6025 147.16 57.5958V104.526ZM348.4 81.6458L334.75 104.526H319.8L340.47 70.3358L320.84 39.1358H336.96L349.96 59.8058L361.66 39.1358H376.35L357.76 71.1158L378.95 104.526H362.83L348.4 81.6458ZM29.64 104.526V78.6558L0 14.1758H16.38L39.52 64.6158C40.6467 67.0425 41.5567 69.1658 42.25 70.9858C43.03 72.7191 43.6367 74.4525 44.07 76.1858C44.5033 77.9191 44.8067 79.8258 44.98 81.9058C45.24 83.8991 45.37 86.3258 45.37 89.1858V104.526H29.64ZM223.86 49.2758C219.18 49.2758 215.67 51.0958 213.33 54.7358C211.077 58.3758 209.95 64.2258 209.95 72.2858C209.95 79.9991 211.033 85.6324 213.2 89.1858C215.453 92.6525 218.79 94.3858 223.21 94.3858C227.63 94.3858 230.967 92.6958 233.22 89.3158C235.56 85.9358 236.817 80.4758 236.99 72.9358V70.5958C236.817 63.2291 235.647 57.8558 233.48 54.4758C231.313 51.0091 228.107 49.2758 223.86 49.2758ZM39.65 57.8558L58.89 14.1758H74.88L55.64 57.8558H39.65ZM104.91 74.3658H102.05C95.1167 74.3658 90.1767 75.1458 87.23 76.7058C84.2833 78.2658 82.81 80.9958 82.81 84.8958C82.81 87.9291 83.6767 90.3558 85.41 92.1758C87.1433 93.9091 89.7433 94.7758 93.21 94.7758C96.07 94.7758 98.41 94.1258 100.23 92.8258C102.137 91.4391 103.697 89.8791 104.91 88.1458V74.3658ZM289.25 49.2758C285.263 49.2758 282.273 50.7491 280.28 53.6958C278.287 56.5558 277.203 60.7591 277.03 66.3058H299.91V64.6158C299.91 62.4491 299.737 60.4558 299.39 58.6358C299.043 56.7291 298.437 55.0824 297.57 53.6958C296.79 52.3091 295.707 51.2258 294.32 50.4458C293.02 49.6658 291.33 49.2758 289.25 49.2758Z" fill="white"/>
<g clip-path="url(#clip0_4_1894)">
<path d="M464.949 0C481.531 0 489.822 0.000392705 496.497 2.29883C508.775 6.5268 518.422 16.1737 522.65 28.4521C524.949 35.1273 524.949 43.4185 524.949 60C524.949 76.5815 524.949 84.8727 522.65 91.5479C518.422 103.826 508.775 113.473 496.497 117.701C489.822 120 481.531 120 464.949 120C448.368 120 440.077 120 433.401 117.701C421.123 113.473 411.476 103.826 407.248 91.5479C404.95 84.8727 404.949 76.5815 404.949 60C404.949 43.4185 404.95 35.1273 407.248 28.4521C411.476 16.1737 421.123 6.5268 433.401 2.29883C440.077 0.000392705 448.368 0 464.949 0ZM462.839 17.5312V55.4736L433.989 31.2666L431.277 34.499L459.693 58.3418L422.738 61.5752L423.106 65.7783L458.467 62.6846L431.275 85.502L433.987 88.7334L459.233 67.5488L445.408 97.1953L449.232 98.9775L460.009 75.8672L455.546 101.181L459.701 101.913L462.839 84.1191V102.188H467.058V63.3037L502.31 79.7432L504.092 75.9199L469.155 59.6279L500.719 37.5303L498.299 34.0752L467.058 55.9492V17.5312H462.839Z" fill="white"/>
</g>
<path d="M1018.43 105.175H1002.96V59.0254C1002.96 56.5121 1002.44 54.6921 1001.4 53.5654C1000.36 52.3521 998.457 51.7454 995.683 51.7454C992.91 51.7454 990.527 52.3954 988.533 53.6954C986.54 54.9954 984.807 56.5121 983.333 58.2454V105.175H967.863V39.7854H982.943L983.333 45.2454H984.113C985.673 43.6854 987.667 42.2121 990.093 40.8254C992.52 39.4387 996.03 38.7454 1000.62 38.7454C1008.86 38.7454 1014.19 41.5187 1016.61 47.0654C1018.52 44.8987 1020.99 42.9921 1024.02 41.3454C1027.14 39.6121 1031.26 38.7454 1036.37 38.7454C1042.7 38.7454 1047.12 40.2621 1049.63 43.2954C1052.23 46.2421 1053.53 50.9654 1053.53 57.4654V105.175H1038.06V59.0254C1038.06 56.5121 1037.54 54.6921 1036.5 53.5654C1035.46 52.3521 1033.56 51.7454 1030.78 51.7454C1028.01 51.7454 1025.63 52.3954 1023.63 53.6954C1021.64 54.9954 1019.91 56.5121 1018.43 58.2454V105.175Z" fill="white"/>
<path d="M939.375 39.7854H954.845V105.175H939.765L939.375 99.7154H938.595C937.035 101.275 934.825 102.749 931.965 104.135C929.192 105.522 925.465 106.215 920.785 106.215C914.458 106.215 909.908 104.742 907.135 101.795C904.362 98.7621 902.975 93.9954 902.975 87.4954V39.7854H918.445V85.9354C918.445 90.7887 921.088 93.2154 926.375 93.2154C929.148 93.2154 931.618 92.5654 933.785 91.2654C936.038 89.9654 937.902 88.4487 939.375 86.7154V39.7854Z" fill="white"/>
<path d="M877.242 106.475C866.842 106.475 859.129 103.572 854.102 97.7654C849.075 91.9587 846.562 83.5521 846.562 72.5454C846.562 67.6054 847.169 63.0554 848.382 58.8954C849.682 54.6487 851.589 51.0521 854.102 48.1054C856.702 45.0721 859.865 42.7321 863.592 41.0854C867.319 39.3521 871.652 38.4854 876.592 38.4854C880.492 38.4854 883.829 38.7887 886.602 39.3954C889.375 39.9154 891.585 40.6521 893.232 41.6054V54.7354C891.672 53.7821 889.549 52.8721 886.862 52.0054C884.175 51.1387 881.315 50.7054 878.282 50.7054C873.169 50.7054 869.269 52.5254 866.582 56.1654C863.895 59.7187 862.552 65.0487 862.552 72.1554C862.552 78.9154 863.765 84.2887 866.192 88.2754C868.619 92.2621 872.605 94.2554 878.152 94.2554C881.445 94.2554 884.262 93.8654 886.602 93.0854C889.029 92.3054 891.239 91.2221 893.232 89.8354V102.445C889.505 105.132 884.175 106.475 877.242 106.475Z" fill="white"/>
<path d="M836.195 39.7854V105.175H820.725V39.7854H836.195ZM828.395 31.7254C825.881 31.7254 823.758 30.9021 822.025 29.2554C820.291 27.6087 819.425 25.3987 819.425 22.6254C819.425 19.8521 820.291 17.6421 822.025 15.9954C823.758 14.3487 825.881 13.5254 828.395 13.5254C830.908 13.5254 833.031 14.3487 834.765 15.9954C836.585 17.6421 837.495 19.8521 837.495 22.6254C837.495 25.3987 836.585 27.6087 834.765 29.2554C833.031 30.9021 830.908 31.7254 828.395 31.7254Z" fill="white"/>
<path d="M795.386 25.4854V39.7854H811.636V52.0054H795.386V85.6754C795.386 88.1021 796.122 90.1387 797.596 91.7854C799.156 93.4321 801.582 94.2554 804.876 94.2554C806.176 94.2554 807.302 94.1687 808.256 93.9954C809.296 93.7354 810.162 93.4754 810.856 93.2154C811.636 92.8687 812.329 92.5221 812.936 92.1754V104.785C811.982 105.132 810.942 105.435 809.816 105.695C808.776 105.869 807.519 106.042 806.046 106.215C804.659 106.389 803.012 106.475 801.106 106.475C797.552 106.475 794.432 105.955 791.746 104.915C789.059 103.875 786.849 102.445 785.116 100.625C783.382 98.7187 782.082 96.5087 781.216 93.9954C780.349 91.3954 779.916 88.5787 779.916 85.5454V52.0054H771.726V39.7854H779.916V25.4854H795.386Z" fill="white"/>
<path d="M750.543 106.475C740.143 106.475 732.43 103.572 727.403 97.7654C722.376 91.9587 719.863 83.5521 719.863 72.5454C719.863 67.6054 720.47 63.0554 721.683 58.8954C722.983 54.6487 724.89 51.0521 727.403 48.1054C730.003 45.0721 733.166 42.7321 736.893 41.0854C740.62 39.3521 744.953 38.4854 749.893 38.4854C753.793 38.4854 757.13 38.7887 759.903 39.3954C762.676 39.9154 764.886 40.6521 766.533 41.6054V54.7354C764.973 53.7821 762.85 52.8721 760.163 52.0054C757.476 51.1387 754.616 50.7054 751.583 50.7054C746.47 50.7054 742.57 52.5254 739.883 56.1654C737.196 59.7187 735.853 65.0487 735.853 72.1554C735.853 78.9154 737.066 84.2887 739.493 88.2754C741.92 92.2621 745.906 94.2554 751.453 94.2554C754.746 94.2554 757.563 93.8654 759.903 93.0854C762.33 92.3054 764.54 91.2221 766.533 89.8354V102.445C762.806 105.132 757.476 106.475 750.543 106.475Z" fill="white"/>
<path d="M694.555 75.4054H692.345C685.671 75.4054 680.905 76.1854 678.045 77.7454C675.185 79.2187 673.755 81.8187 673.755 85.5454C673.755 88.3187 674.535 90.5721 676.095 92.3054C677.741 93.9521 680.211 94.7754 683.505 94.7754C686.278 94.7754 688.575 94.2987 690.395 93.3454C692.215 92.3054 693.601 91.0487 694.555 89.5754V75.4054ZM710.025 89.1854C710.025 94.5587 710.285 99.8887 710.805 105.175H695.725C695.465 104.482 695.205 103.659 694.945 102.705C694.771 101.752 694.641 100.842 694.555 99.9754H693.905C692.431 101.535 690.525 102.965 688.185 104.265C685.845 105.479 682.421 106.085 677.915 106.085C671.935 106.085 667.081 104.309 663.355 100.755C659.715 97.2021 657.895 92.0887 657.895 85.4154C657.895 78.7421 660.625 73.5854 666.085 69.9454C671.545 66.2187 680.211 64.3554 692.085 64.3554H694.555V60.7154C694.555 57.1621 693.688 54.6921 691.955 53.3054C690.221 51.8321 687.491 51.0954 683.765 51.0954C681.771 51.0954 679.735 51.3121 677.655 51.7454C675.575 52.0921 673.581 52.5687 671.675 53.1754C669.855 53.7821 668.121 54.4754 666.475 55.2554C664.915 56.0354 663.615 56.8154 662.575 57.5954V44.7254C664.915 43.3387 668.035 41.9954 671.935 40.6954C675.835 39.3954 680.385 38.7454 685.585 38.7454C693.818 38.7454 699.928 40.3921 703.915 43.6854C707.988 46.9787 710.025 52.6121 710.025 60.5854V89.1854Z" fill="white"/>
<path d="M632.562 105.175H617.092V39.7854H632.172L632.562 52.7854H632.952C634.772 48.4521 637.415 45.0287 640.882 42.5154C644.348 40.0021 648.292 38.6154 652.712 38.3554V52.9154C647.945 52.6554 643.915 53.5221 640.622 55.5154C637.415 57.4221 634.728 60.3687 632.562 64.3554V105.175Z" fill="white"/>
<path d="M574.479 14.8254C585.226 14.8254 593.503 17.2954 599.309 22.2354C605.116 27.1754 608.019 34.2387 608.019 43.4254C608.019 48.4521 607.196 52.8287 605.549 56.5554C603.989 60.1954 601.736 63.2287 598.789 65.6554C595.929 68.0821 592.419 69.9021 588.259 71.1154C584.099 72.3287 579.463 72.9354 574.349 72.9354H566.679V105.175H550.949V14.8254H574.479ZM574.479 60.7154C579.939 60.7154 584.229 59.3287 587.349 56.5554C590.469 53.7821 592.029 49.4054 592.029 43.4254C592.029 37.7054 590.556 33.5454 587.609 30.9454C584.749 28.3454 580.546 27.0454 574.999 27.0454H566.679V60.7154H574.479Z" fill="white"/>
<defs>
<clipPath id="clip0_4_1894">
<rect width="120" height="120" fill="white" transform="translate(404.949)"/>
</clipPath>
</defs>
</svg>
