<svg width="1115" height="126" viewBox="0 0 1115 126" fill="none" xmlns="http://www.w3.org/2000/svg">
<path d="M193.18 112.65H180.18V97.6996H144.17V112.65H131.17V86.2596H135.46C136.847 83.4863 137.973 80.1929 138.84 76.3796C139.707 72.4796 140.4 68.3629 140.92 64.0296C141.44 59.6963 141.787 55.2763 141.96 50.7696C142.133 46.2629 142.22 41.9729 142.22 37.8996V32.3096H186.29V86.2596H193.18V112.65ZM44.33 19.5696H37.31C30.81 19.5696 25.9133 21.0429 22.62 23.9896C19.3267 26.9363 17.68 30.8363 17.68 35.6896C17.68 38.4629 17.9833 40.8896 18.59 42.9696C19.1967 44.9629 20.0633 46.8263 21.19 48.5596C22.4033 50.2929 23.8767 51.9396 25.61 53.4996C27.43 54.9729 29.5533 56.5329 31.98 58.1796L39.91 63.5096L17.03 97.6996H0L20.54 67.1496C17.5933 65.0696 14.95 62.9463 12.61 60.7796C10.3567 58.6129 8.45 56.3163 6.89 53.8896C5.33 51.4629 4.11667 48.8629 3.25 46.0896C2.47 43.2296 2.08 40.0663 2.08 36.5996C2.08 32.2663 2.81667 28.3229 4.29 24.7696C5.85 21.1296 8.10333 18.0529 11.05 15.5396C13.9967 12.9396 17.6367 10.9463 21.97 9.55961C26.39 8.08628 31.46 7.34961 37.18 7.34961H60.06V97.6996H44.33V19.5696ZM212.94 70.1396C213.2 76.0329 214.587 80.4096 217.1 83.2696C219.613 86.1296 223.86 87.5596 229.84 87.5596C233.48 87.5596 237.077 86.953 240.63 85.7396C244.27 84.4396 247.26 83.0096 249.6 81.4496V93.2796C247.347 94.8396 244.487 96.1829 241.02 97.3096C237.553 98.4363 233.393 98.9996 228.54 98.9996C218.833 98.9996 211.337 96.2263 206.05 90.6796C200.85 85.133 198.25 76.6396 198.25 65.1996C198.25 60.2596 198.77 55.7096 199.81 51.5496C200.937 47.3896 202.627 43.7929 204.88 40.7596C207.133 37.6396 209.95 35.2563 213.33 33.6096C216.797 31.8763 220.827 31.0096 225.42 31.0096C229.147 31.0096 232.527 31.5729 235.56 32.6996C238.68 33.8263 241.323 35.6463 243.49 38.1596C245.657 40.6729 247.303 43.9229 248.43 47.9096C249.643 51.8096 250.25 56.6196 250.25 62.3396V70.1396H212.94ZM123.37 32.3096V97.6996H109.2V70.0096H87.23V97.6996H73.06V32.3096H87.23V58.5696H109.2V32.3096H123.37ZM276.12 64.8096V97.6996H261.95V32.3096H276.12V63.8996L299 32.3096H313.82L291.59 62.9896L316.68 97.6996H300.04L276.12 64.8096ZM346.97 98.9996C336.743 98.9996 329.16 96.0963 324.22 90.2896C319.367 84.4829 316.94 76.0763 316.94 65.0696C316.94 60.1296 317.547 55.5796 318.76 51.4196C320.06 47.1729 321.923 43.5763 324.35 40.6296C326.863 37.5963 329.94 35.2563 333.58 33.6096C337.22 31.8763 341.467 31.0096 346.32 31.0096C350.047 31.0096 353.253 31.3129 355.94 31.9196C358.627 32.4396 360.75 33.1763 362.31 34.1296V46.6096C360.837 45.6563 358.8 44.7463 356.2 43.8796C353.6 43.0129 350.87 42.5796 348.01 42.5796C342.723 42.5796 338.65 44.4429 335.79 48.1696C333.017 51.8096 331.63 57.3129 331.63 64.6796C331.63 71.6996 332.887 77.2463 335.4 81.3196C337.913 85.393 342.073 87.4296 347.88 87.4296C351 87.4296 353.687 87.0396 355.94 86.2596C358.28 85.3929 360.403 84.3096 362.31 83.0096V94.9696C360.49 96.2696 358.323 97.2663 355.81 97.9596C353.383 98.653 350.437 98.9996 346.97 98.9996ZM172.12 43.7496H154.7V46.4796C154.7 49.3396 154.613 52.5463 154.44 56.0996C154.267 59.6529 153.963 63.2496 153.53 66.8896C153.097 70.5296 152.49 74.0396 151.71 77.4196C151.017 80.7996 150.107 83.7463 148.98 86.2596H172.12V43.7496ZM225.16 42.4496C221.173 42.4496 218.183 43.9229 216.19 46.8696C214.197 49.7296 213.113 53.9329 212.94 59.4796H235.82V57.7896C235.82 55.6229 235.647 53.6296 235.3 51.8096C234.953 49.9029 234.347 48.2563 233.48 46.8696C232.7 45.4829 231.617 44.3996 230.23 43.6196C228.93 42.8396 227.24 42.4496 225.16 42.4496Z" fill="white"/>
<g clip-path="url(#clip0_4_1886)">
<path d="M448.309 0C464.89 0 473.181 0.000392705 479.856 2.29883C492.135 6.5268 501.782 16.1737 506.01 28.4521C508.308 35.1273 508.309 43.4185 508.309 60C508.309 76.5815 508.308 84.8727 506.01 91.5479C501.782 103.826 492.135 113.473 479.856 117.701C473.181 120 464.89 120 448.309 120C431.727 120 423.436 120 416.761 117.701C404.482 113.473 394.835 103.826 390.607 91.5479C388.309 84.8727 388.309 76.5815 388.309 60C388.309 43.4185 388.309 35.1273 390.607 28.4521C394.835 16.1737 404.482 6.5268 416.761 2.29883C423.436 0.000392705 431.727 0 448.309 0ZM446.198 17.5312V55.4736L417.349 31.2666L414.637 34.499L443.053 58.3418L406.098 61.5752L406.466 65.7783L441.826 62.6846L414.635 85.502L417.347 88.7334L442.593 67.5488L428.768 97.1953L432.592 98.9775L443.368 75.8672L438.905 101.181L443.061 101.913L446.198 84.1191V102.188H450.417V63.3037L485.669 79.7432L487.451 75.9199L452.515 59.6279L484.078 37.5303L481.658 34.0752L450.417 55.9492V17.5312H446.198Z" fill="white"/>
</g>
<path d="M1114.3 105.35H1099.22V56.47L1083.36 105.35H1070.75L1056.58 56.6V105.35H1043.45V39.96H1065.94L1078.68 83.51L1092.85 39.96H1114.04L1114.3 105.35Z" fill="white"/>
<path d="M992.986 125.5C991.426 125.5 990.126 125.37 989.086 125.11C988.046 124.937 987.179 124.72 986.486 124.46C985.706 124.113 985.056 123.723 984.536 123.29V110.68C986.269 112.413 988.609 113.28 991.556 113.28C993.723 113.28 995.456 112.803 996.756 111.85C998.056 110.983 999.139 109.77 1000.01 108.21L977.516 39.96H993.766L1008.2 89.23L1022.63 39.96H1037.58L1017.17 101.84C1016.04 105.22 1014.83 108.34 1013.53 111.2C1012.23 114.06 1010.67 116.53 1008.85 118.61C1007.03 120.777 1004.82 122.467 1002.22 123.68C999.703 124.893 996.626 125.5 992.986 125.5Z" fill="white"/>
<path d="M937.04 73.76V105.35H921.57V39.96H937.04V70.64L958.88 39.96H974.48L952.64 70.64L977.47 105.35H959.92L937.04 73.76Z" fill="white"/>
<path d="M871.139 39.96V80.52L894.799 39.96H908.579V105.35H893.629V64.92L869.969 105.35H856.189V39.96H871.139Z" fill="white"/>
<path d="M828.831 52.18V105.35H813.361V52.18H795.161V39.96H847.031V52.18H828.831Z" fill="white"/>
<path d="M751.435 73.76V105.35H735.965V39.96H751.435V70.64L773.275 39.96H788.875L767.035 70.64L791.865 105.35H774.315L751.435 73.76Z" fill="white"/>
<path d="M708.056 75.58H705.846C699.173 75.58 694.406 76.36 691.546 77.92C688.686 79.3933 687.256 81.9933 687.256 85.72C687.256 88.4933 688.036 90.7467 689.596 92.48C691.243 94.1267 693.713 94.95 697.006 94.95C699.78 94.95 702.076 94.4733 703.896 93.52C705.716 92.48 707.103 91.2233 708.056 89.75V75.58ZM723.526 89.36C723.526 94.7333 723.786 100.063 724.306 105.35H709.226C708.966 104.657 708.706 103.833 708.446 102.88C708.273 101.927 708.143 101.017 708.056 100.15H707.406C705.933 101.71 704.026 103.14 701.686 104.44C699.346 105.653 695.923 106.26 691.416 106.26C685.436 106.26 680.583 104.483 676.856 100.93C673.216 97.3767 671.396 92.2633 671.396 85.59C671.396 78.9167 674.126 73.76 679.586 70.12C685.046 66.3933 693.713 64.53 705.586 64.53H708.056V60.89C708.056 57.3367 707.19 54.8667 705.456 53.48C703.723 52.0067 700.993 51.27 697.266 51.27C695.273 51.27 693.236 51.4867 691.156 51.92C689.076 52.2667 687.083 52.7433 685.176 53.35C683.356 53.9567 681.623 54.65 679.976 55.43C678.416 56.21 677.116 56.99 676.076 57.77V44.9C678.416 43.5133 681.536 42.17 685.436 40.87C689.336 39.57 693.886 38.92 699.086 38.92C707.32 38.92 713.43 40.5667 717.416 43.86C721.49 47.1533 723.526 52.7867 723.526 60.76V89.36Z" fill="white"/>
<path d="M622.187 48.41C624.181 45.2033 626.651 42.7767 629.597 41.13C632.631 39.4833 635.967 38.66 639.607 38.66C643.247 38.66 646.584 39.3967 649.617 40.87C652.651 42.3433 655.251 44.5533 657.417 47.5C659.584 50.36 661.274 53.9133 662.487 58.16C663.701 62.32 664.307 67.13 664.307 72.59C664.307 78.05 663.657 82.9033 662.357 87.15C661.144 91.3967 659.411 94.9933 657.157 97.94C654.991 100.8 652.304 102.967 649.097 104.44C645.977 105.913 642.554 106.65 638.827 106.65C631.981 106.65 626.564 103.66 622.577 97.68V124.2H607.107V39.96H621.407L622.187 48.41ZM634.927 94.43C639.434 94.43 642.771 92.6967 644.937 89.23C647.191 85.7633 648.317 80.2167 648.317 72.59C648.317 64.9633 647.277 59.46 645.197 56.08C643.117 52.6133 639.954 50.88 635.707 50.88C631.374 50.88 628.124 52.5267 625.957 55.82C623.791 59.1133 622.664 64.4 622.577 71.68V72.72C622.577 80.3467 623.574 85.8933 625.567 89.36C627.647 92.74 630.767 94.43 634.927 94.43Z" fill="white"/>
<path d="M594.157 15V105.35H578.427V27.22H550.347V105.35H534.617V15H594.157Z" fill="white"/>
<defs>
<clipPath id="clip0_4_1886">
<rect width="120" height="120" fill="white" transform="translate(388.309)"/>
</clipPath>
</defs>
</svg>
