<svg width="854" height="126" viewBox="0 0 854 126" fill="none" xmlns="http://www.w3.org/2000/svg">
<g clip-path="url(#clip0_4_1912)">
<circle cx="60" cy="60" r="60" fill="#FC3F1D"/>
<path d="M68.4555 96.0605H80.9908V24.0605H62.7577C44.421 24.0605 34.7865 33.4879 34.7865 47.3699C34.7865 58.4548 40.0699 64.9814 49.4972 71.7152L33.1289 96.0605H46.7001L64.9332 68.8145L58.6138 64.567C50.9476 59.3872 47.2181 55.3469 47.2181 46.6447C47.2181 38.9785 52.6052 33.7987 62.8613 33.7987H68.4555V96.0605Z" fill="white"/>
</g>
<g clip-path="url(#clip1_4_1912)">
<path d="M128 60C128 43.4185 128 35.1277 130.298 28.4526C134.526 16.1738 144.174 6.52637 156.453 2.29844C163.128 0 171.418 0 188 0C204.582 0 212.872 0 219.547 2.29844C231.826 6.52637 241.474 16.1738 245.702 28.4526C248 35.1277 248 43.4185 248 60C248 76.5815 248 84.8723 245.702 91.5474C241.474 103.826 231.826 113.474 219.547 117.702C212.872 120 204.582 120 188 120C171.418 120 163.128 120 156.453 117.702C144.174 113.474 134.526 103.826 130.298 91.5474C128 84.8723 128 76.5815 128 60Z" fill="white"/>
<path d="M190.108 55.9495L221.349 34.0748L223.769 37.53L192.206 59.6281L227.143 75.9199L225.36 79.7432L190.108 63.304V102.187H185.889V84.1194L182.752 101.913L178.597 101.18L183.059 75.8668L172.284 98.9775L168.459 97.1949L182.284 67.5483L157.038 88.7336L154.326 85.5018L181.518 62.6841L146.157 65.7786L145.789 61.5754L182.744 58.3418L154.328 34.4987L157.04 31.2669L185.889 55.4734V17.5312H190.108V55.9495Z" fill="#1E1E1E"/>
</g>
<path d="M853.987 105.35H838.907V56.47L823.047 105.35H810.437L796.267 56.6V105.35H783.137V39.96H805.627L818.367 83.51L832.537 39.96H853.727L853.987 105.35Z" fill="white"/>
<path d="M732.677 125.5C731.117 125.5 729.817 125.37 728.777 125.11C727.737 124.937 726.871 124.72 726.177 124.46C725.397 124.113 724.747 123.723 724.227 123.29V110.68C725.961 112.413 728.301 113.28 731.247 113.28C733.414 113.28 735.147 112.803 736.447 111.85C737.747 110.983 738.831 109.77 739.697 108.21L717.207 39.96H733.457L747.887 89.23L762.317 39.96H777.267L756.857 101.84C755.731 105.22 754.517 108.34 753.217 111.2C751.917 114.06 750.357 116.53 748.537 118.61C746.717 120.777 744.507 122.467 741.907 123.68C739.394 124.893 736.317 125.5 732.677 125.5Z" fill="white"/>
<path d="M676.732 73.76V105.35H661.262V39.96H676.732V70.64L698.572 39.96H714.172L692.332 70.64L717.162 105.35H699.612L676.732 73.76Z" fill="white"/>
<path d="M610.831 39.96V80.52L634.491 39.96H648.271V105.35H633.321V64.92L609.661 105.35H595.881V39.96H610.831Z" fill="white"/>
<path d="M568.522 52.18V105.35H553.052V52.18H534.852V39.96H586.722V52.18H568.522Z" fill="white"/>
<path d="M491.126 73.76V105.35H475.656V39.96H491.126V70.64L512.966 39.96H528.566L506.726 70.64L531.556 105.35H514.006L491.126 73.76Z" fill="white"/>
<path d="M447.748 75.58H445.538C438.865 75.58 434.098 76.36 431.238 77.92C428.378 79.3933 426.948 81.9933 426.948 85.72C426.948 88.4933 427.728 90.7467 429.288 92.48C430.935 94.1267 433.405 94.95 436.698 94.95C439.471 94.95 441.768 94.4733 443.588 93.52C445.408 92.48 446.795 91.2233 447.748 89.75V75.58ZM463.218 89.36C463.218 94.7333 463.478 100.063 463.998 105.35H448.918C448.658 104.657 448.398 103.833 448.138 102.88C447.965 101.927 447.835 101.017 447.748 100.15H447.098C445.625 101.71 443.718 103.14 441.378 104.44C439.038 105.653 435.615 106.26 431.108 106.26C425.128 106.26 420.275 104.483 416.548 100.93C412.908 97.3767 411.088 92.2633 411.088 85.59C411.088 78.9167 413.818 73.76 419.278 70.12C424.738 66.3933 433.405 64.53 445.278 64.53H447.748V60.89C447.748 57.3367 446.881 54.8667 445.148 53.48C443.415 52.0067 440.685 51.27 436.958 51.27C434.965 51.27 432.928 51.4867 430.848 51.92C428.768 52.2667 426.775 52.7433 424.868 53.35C423.048 53.9567 421.315 54.65 419.668 55.43C418.108 56.21 416.808 56.99 415.768 57.77V44.9C418.108 43.5133 421.228 42.17 425.128 40.87C429.028 39.57 433.578 38.92 438.778 38.92C447.011 38.92 453.121 40.5667 457.108 43.86C461.181 47.1533 463.218 52.7867 463.218 60.76V89.36Z" fill="white"/>
<path d="M361.879 48.41C363.872 45.2033 366.342 42.7767 369.289 41.13C372.322 39.4833 375.659 38.66 379.299 38.66C382.939 38.66 386.275 39.3967 389.309 40.87C392.342 42.3433 394.942 44.5533 397.109 47.5C399.275 50.36 400.965 53.9133 402.179 58.16C403.392 62.32 403.999 67.13 403.999 72.59C403.999 78.05 403.349 82.9033 402.049 87.15C400.835 91.3967 399.102 94.9933 396.849 97.94C394.682 100.8 391.996 102.967 388.789 104.44C385.669 105.913 382.245 106.65 378.519 106.65C371.672 106.65 366.255 103.66 362.269 97.68V124.2H346.799V39.96H361.099L361.879 48.41ZM374.619 94.43C379.125 94.43 382.462 92.6967 384.629 89.23C386.882 85.7633 388.009 80.2167 388.009 72.59C388.009 64.9633 386.969 59.46 384.889 56.08C382.809 52.6133 379.645 50.88 375.399 50.88C371.065 50.88 367.815 52.5267 365.649 55.82C363.482 59.1133 362.355 64.4 362.269 71.68V72.72C362.269 80.3467 363.265 85.8933 365.259 89.36C367.339 92.74 370.459 94.43 374.619 94.43Z" fill="white"/>
<path d="M333.849 15V105.35H318.119V27.22H290.039V105.35H274.309V15H333.849Z" fill="white"/>
<defs>
<clipPath id="clip0_4_1912">
<rect width="120" height="120" fill="white"/>
</clipPath>
<clipPath id="clip1_4_1912">
<rect width="120" height="120" fill="white" transform="translate(128)"/>
</clipPath>
</defs>
</svg>
