<svg width="852" height="126" viewBox="0 0 852 126" fill="none" xmlns="http://www.w3.org/2000/svg">
<g clip-path="url(#clip0_4_1821)">
<path d="M60 0C93.1371 0 120 26.8629 120 60C120 93.1371 93.1371 120 60 120C26.8629 120 0 93.1371 0 60C0 26.8629 26.8629 0 60 0ZM62.7578 24.0605C44.4211 24.0605 34.7861 33.4881 34.7861 47.3701C34.7862 58.4548 40.07 64.9812 49.4971 71.7148L33.1289 96.0605H46.7002L64.9336 68.8145L58.6143 64.5674C50.9481 59.3875 47.2178 55.3467 47.2178 46.6445C47.2179 38.9785 52.6053 33.7988 62.8613 33.7988H68.4551V96.0605H80.9912V24.0605H62.7578Z" fill="white"/>
</g>
<g clip-path="url(#clip1_4_1821)">
<path d="M188 0C204.582 0 212.873 0.000392705 219.548 2.29883C231.826 6.5268 241.473 16.1737 245.701 28.4521C248 35.1273 248 43.4185 248 60C248 76.5815 248 84.8727 245.701 91.5479C241.473 103.826 231.826 113.473 219.548 117.701C212.873 120 204.582 120 188 120C171.418 120 163.127 120 156.452 117.701C144.174 113.473 134.527 103.826 130.299 91.5479C128 84.8727 128 76.5815 128 60C128 43.4185 128 35.1273 130.299 28.4521C134.527 16.1737 144.174 6.5268 156.452 2.29883C163.127 0.000392705 171.418 0 188 0ZM185.89 17.5312V55.4736L157.04 31.2666L154.328 34.499L182.744 58.3418L145.789 61.5752L146.157 65.7783L181.518 62.6846L154.326 85.502L157.038 88.7334L182.284 67.5488L168.459 97.1953L172.283 98.9775L183.06 75.8672L178.597 101.181L182.752 101.913L185.89 84.1191V102.188H190.108V63.3037L225.36 79.7432L227.143 75.9199L192.206 59.6279L223.77 37.5303L221.35 34.0752L190.108 55.9492V17.5312H185.89Z" fill="white"/>
</g>
<path d="M851.987 105.35H836.907V56.47L821.047 105.35H808.437L794.267 56.6V105.35H781.137V39.96H803.627L816.367 83.51L830.537 39.96H851.727L851.987 105.35Z" fill="white"/>
<path d="M730.677 125.5C729.117 125.5 727.817 125.37 726.777 125.11C725.737 124.937 724.871 124.72 724.177 124.46C723.397 124.113 722.747 123.723 722.227 123.29V110.68C723.961 112.413 726.301 113.28 729.247 113.28C731.414 113.28 733.147 112.803 734.447 111.85C735.747 110.983 736.831 109.77 737.697 108.21L715.207 39.96H731.457L745.887 89.23L760.317 39.96H775.267L754.857 101.84C753.731 105.22 752.517 108.34 751.217 111.2C749.917 114.06 748.357 116.53 746.537 118.61C744.717 120.777 742.507 122.467 739.907 123.68C737.394 124.893 734.317 125.5 730.677 125.5Z" fill="white"/>
<path d="M674.732 73.76V105.35H659.262V39.96H674.732V70.64L696.572 39.96H712.172L690.332 70.64L715.162 105.35H697.612L674.732 73.76Z" fill="white"/>
<path d="M608.831 39.96V80.52L632.491 39.96H646.271V105.35H631.321V64.92L607.661 105.35H593.881V39.96H608.831Z" fill="white"/>
<path d="M566.522 52.18V105.35H551.052V52.18H532.852V39.96H584.722V52.18H566.522Z" fill="white"/>
<path d="M489.126 73.76V105.35H473.656V39.96H489.126V70.64L510.966 39.96H526.566L504.726 70.64L529.556 105.35H512.006L489.126 73.76Z" fill="white"/>
<path d="M445.748 75.58H443.538C436.865 75.58 432.098 76.36 429.238 77.92C426.378 79.3933 424.948 81.9933 424.948 85.72C424.948 88.4933 425.728 90.7467 427.288 92.48C428.935 94.1267 431.405 94.95 434.698 94.95C437.471 94.95 439.768 94.4733 441.588 93.52C443.408 92.48 444.795 91.2233 445.748 89.75V75.58ZM461.218 89.36C461.218 94.7333 461.478 100.063 461.998 105.35H446.918C446.658 104.657 446.398 103.833 446.138 102.88C445.965 101.927 445.835 101.017 445.748 100.15H445.098C443.625 101.71 441.718 103.14 439.378 104.44C437.038 105.653 433.615 106.26 429.108 106.26C423.128 106.26 418.275 104.483 414.548 100.93C410.908 97.3767 409.088 92.2633 409.088 85.59C409.088 78.9167 411.818 73.76 417.278 70.12C422.738 66.3933 431.405 64.53 443.278 64.53H445.748V60.89C445.748 57.3367 444.881 54.8667 443.148 53.48C441.415 52.0067 438.685 51.27 434.958 51.27C432.965 51.27 430.928 51.4867 428.848 51.92C426.768 52.2667 424.775 52.7433 422.868 53.35C421.048 53.9567 419.315 54.65 417.668 55.43C416.108 56.21 414.808 56.99 413.768 57.77V44.9C416.108 43.5133 419.228 42.17 423.128 40.87C427.028 39.57 431.578 38.92 436.778 38.92C445.011 38.92 451.121 40.5667 455.108 43.86C459.181 47.1533 461.218 52.7867 461.218 60.76V89.36Z" fill="white"/>
<path d="M359.879 48.41C361.872 45.2033 364.342 42.7767 367.289 41.13C370.322 39.4833 373.659 38.66 377.299 38.66C380.939 38.66 384.275 39.3967 387.309 40.87C390.342 42.3433 392.942 44.5533 395.109 47.5C397.275 50.36 398.965 53.9133 400.179 58.16C401.392 62.32 401.999 67.13 401.999 72.59C401.999 78.05 401.349 82.9033 400.049 87.15C398.835 91.3967 397.102 94.9933 394.849 97.94C392.682 100.8 389.996 102.967 386.789 104.44C383.669 105.913 380.245 106.65 376.519 106.65C369.672 106.65 364.255 103.66 360.269 97.68V124.2H344.799V39.96H359.099L359.879 48.41ZM372.619 94.43C377.125 94.43 380.462 92.6967 382.629 89.23C384.882 85.7633 386.009 80.2167 386.009 72.59C386.009 64.9633 384.969 59.46 382.889 56.08C380.809 52.6133 377.645 50.88 373.399 50.88C369.065 50.88 365.815 52.5267 363.649 55.82C361.482 59.1133 360.355 64.4 360.269 71.68V72.72C360.269 80.3467 361.265 85.8933 363.259 89.36C365.339 92.74 368.459 94.43 372.619 94.43Z" fill="white"/>
<path d="M331.849 15V105.35H316.119V27.22H288.039V105.35H272.309V15H331.849Z" fill="white"/>
<defs>
<clipPath id="clip0_4_1821">
<rect width="120" height="120" fill="white"/>
</clipPath>
<clipPath id="clip1_4_1821">
<rect width="120" height="120" fill="white" transform="translate(128)"/>
</clipPath>
</defs>
</svg>
